<svg width="60" height="61" viewBox="0 0 60 61" fill="none" xmlns="http://www.w3.org/2000/svg">
<circle cx="30" cy="30.498" r="30" fill="#FAE2CB"/>
<g clip-path="url(#clip0_1002_50)">
<path d="M28.0003 14.998H31.9969C32.1854 15.0216 32.373 15.0468 32.5615 15.0679C35.3776 15.3831 37.9125 16.3929 40.1176 18.1833C42.893 20.4409 44.6219 23.3321 45.2678 26.8578C45.3678 27.4013 45.4263 27.9521 45.5043 28.4996V29.6499C45.2459 30.2998 44.7584 30.507 44.0751 30.5062C34.691 30.4932 25.3072 30.4902 15.9237 30.4972C15.8229 30.4972 15.7214 30.4972 15.6206 30.4972C14.9641 30.4745 14.5018 30.0098 14.5059 29.3534C14.5052 28.8792 14.5285 28.4053 14.5758 27.9334C14.8821 25.1283 15.8895 22.6018 17.6697 20.406C19.9283 17.6187 22.8273 15.8827 26.3632 15.2344C26.9034 15.1345 27.4519 15.076 28.0003 14.998ZM25.5702 23.3037C25.5702 23.1022 25.5816 22.8975 25.5702 22.7001C25.5287 22.1079 25.0876 21.6725 24.5221 21.6513C23.9241 21.6294 23.4391 22.0145 23.3846 22.6213C23.342 23.072 23.342 23.5257 23.3846 23.9763C23.4079 24.2558 23.5403 24.5148 23.7532 24.6973C23.9661 24.8797 24.2424 24.971 24.5221 24.9512C25.1087 24.9195 25.5434 24.48 25.5783 23.8748C25.5832 23.6863 25.5702 23.4946 25.5702 23.3037ZM34.4262 23.3037C34.4262 23.5149 34.4099 23.7278 34.4262 23.9374C34.4467 24.2115 34.5694 24.4679 34.7699 24.6559C34.9705 24.844 35.2343 24.9499 35.5092 24.9528C35.7798 24.9649 36.0446 24.8725 36.2491 24.6949C36.4535 24.5173 36.5819 24.2679 36.6077 23.9983C36.6517 23.539 36.6517 23.0765 36.6077 22.6173C36.55 22.012 36.0617 21.6278 35.4637 21.6513C34.895 21.6741 34.4595 22.1111 34.4188 22.7074C34.4172 22.904 34.4286 23.1063 34.4286 23.307L34.4262 23.3037ZM31.0877 23.3191C31.0877 23.0754 31.1064 22.8317 31.0877 22.5953C31.0564 22.3332 30.9299 22.0917 30.7321 21.9167C30.5344 21.7418 30.2793 21.6456 30.0152 21.6465C29.4506 21.6416 28.9533 22.0527 28.9168 22.5978C28.8875 23.0598 28.8875 23.5232 28.9168 23.9853C28.9501 24.5328 29.4457 24.9536 30.0039 24.9528C30.2731 24.9547 30.5335 24.8565 30.7343 24.6773C30.9352 24.498 31.0623 24.2505 31.0909 23.9828C31.108 23.7659 31.0901 23.5434 31.0901 23.32L31.0877 23.3191Z" fill="#60340B"/>
<path d="M45.4996 38.0051V41.0296C45.4046 41.4187 45.3371 41.8184 45.2088 42.1953C44.3963 44.5471 42.3521 45.9923 39.8359 45.994C33.277 45.994 26.7176 45.994 20.1577 45.994C20.0066 45.994 19.8547 45.994 19.7035 45.9826C17.2214 45.8534 15.0188 43.9704 14.6272 41.5194C14.4647 40.5032 14.5208 39.4503 14.5004 38.4129C14.4842 37.5705 14.9189 37.144 15.7598 37.144C20.815 37.144 25.8708 37.1427 30.9271 37.14C31.292 37.1347 31.6476 37.2549 31.9345 37.4803C32.9964 38.2838 34.0632 39.0799 35.1292 39.8785C35.2641 39.9792 35.4014 40.0775 35.5354 40.1782C36.7468 39.27 37.9436 38.3772 39.1339 37.4771C39.4212 37.2516 39.7778 37.1325 40.143 37.14C41.4649 37.1489 42.7868 37.1627 44.1087 37.1351C44.792 37.1229 45.2608 37.3577 45.4996 38.0051Z" fill="#60340B"/>
<path d="M45.5001 34.0701C45.2499 34.7273 44.7616 34.932 44.0775 34.9312C34.6527 34.9187 25.228 34.916 15.8033 34.9231C15.1013 34.9231 14.6845 34.6444 14.5375 34.0822C14.4995 33.933 14.4937 33.7773 14.5203 33.6256C14.5469 33.4739 14.6053 33.3296 14.6917 33.2021C14.7782 33.0746 14.8906 32.9669 15.0217 32.886C15.1528 32.8051 15.2996 32.753 15.4523 32.7329C15.5929 32.7184 15.7343 32.7124 15.8756 32.715C25.2917 32.715 34.7072 32.7123 44.1221 32.7069C44.8014 32.7069 45.2694 32.9352 45.5033 33.5851L45.5001 34.0701Z" fill="#60340B"/>
</g>
<defs>
<clipPath id="clip0_1002_50">
<rect width="31" height="31" fill="white" transform="translate(14.5 14.998)"/>
</clipPath>
</defs>
</svg>
