<svg width="61" height="61" viewBox="0 0 61 61" fill="none" xmlns="http://www.w3.org/2000/svg">
<circle cx="30.0625" cy="30.498" r="30" fill="#FAE2CB"/>
<g clip-path="url(#clip0_1002_77)">
<path d="M30.9251 14.998C31.5833 15.0974 32.2544 15.1444 32.8982 15.3014C38.5938 16.7074 42.1132 20.2756 43.4752 25.956C43.5698 26.3896 43.6359 26.8289 43.6731 27.271C43.7187 27.7018 43.7286 28.1356 43.7583 28.6415C43.6267 28.5451 43.4886 28.4576 43.3451 28.3798C42.9403 28.1993 42.5355 28.0158 42.1192 27.8687C41.9404 27.8057 41.8643 27.7405 41.8461 27.5456C41.6667 25.4855 40.9373 23.5109 39.7337 21.8266C38.3788 19.8942 36.4688 18.4158 34.2549 17.5856C32.5477 16.9294 30.7084 16.6872 28.8888 16.8788C26.5865 17.0981 24.4029 17.9996 22.6194 19.4672C20.7048 21.0037 19.3256 23.1033 18.6785 25.4668C18.4852 26.1494 18.419 26.8721 18.2843 27.5744C18.2668 27.6662 18.2082 27.7921 18.1321 27.8239C17.563 28.0689 16.9854 28.2941 16.3584 28.5467C16.4345 27.8216 16.4581 27.0564 16.6027 26.314C17.5287 21.5467 20.224 18.1461 24.6473 16.1212C26.0059 15.5093 27.4636 15.1456 28.9512 15.0473C29.0406 15.0353 29.1293 15.0181 29.2168 14.9957L30.9251 14.998Z" fill="#60340B"/>
<path d="M32.6407 42.3555C33.6832 42.3555 34.7173 42.3942 35.7469 42.3449C36.8723 42.2911 37.8471 41.4758 38.0913 40.5248C37.6348 40.5035 37.1508 40.5543 36.7057 40.4489C35.4516 40.1456 34.6511 39.1263 34.6382 37.831C34.6161 35.3685 34.6032 32.906 34.6382 30.4442C34.6709 28.2699 36.921 27.0315 38.7891 28.1342C39.6581 28.6468 40.0827 29.4591 40.0903 30.4541C40.104 33.5635 40.1208 36.6729 40.0842 39.7823C40.0561 42.1773 38.0738 44.1226 35.6708 44.181C34.7394 44.2037 33.808 44.1916 32.8766 44.181C32.6978 44.181 32.6148 44.2386 32.5395 44.3986C31.9863 45.5878 30.7452 46.2074 29.4866 45.9351C28.2729 45.6727 27.3864 44.595 27.3423 43.3293C27.2997 42.0878 28.1847 40.9502 29.4433 40.6294C30.6326 40.3261 31.9544 40.9442 32.5007 42.0575C32.5494 42.1583 32.5943 42.2569 32.6407 42.3555Z" fill="#60340B"/>
<path d="M25.5167 34.1634C25.5167 35.3541 25.5227 36.5447 25.5167 37.7346C25.509 38.9723 24.7816 40.028 23.7117 40.3776C21.874 40.9768 20.0911 39.7664 20.0592 37.8393C20.0206 35.3685 20.0206 32.8969 20.0592 30.4245C20.0972 28.2646 22.3336 27.0375 24.1972 28.1273C25.1012 28.6582 25.506 29.5 25.5136 30.5314C25.5235 31.7426 25.5167 32.953 25.5167 34.1634Z" fill="#60340B"/>
<path d="M18.2593 29.7207V38.5605C17.5379 38.3178 16.9916 37.8613 16.6933 37.1711C16.5273 36.7834 16.4347 36.3684 16.4201 35.9471C16.3851 34.7382 16.4011 33.5271 16.4094 32.3174C16.4148 31.0858 17.1711 30.0241 18.2593 29.7207Z" fill="#60340B"/>
<path d="M41.8936 38.5453V29.7055C42.4491 29.8832 42.9287 30.2416 43.2556 30.7233C43.5792 31.1798 43.7499 31.7266 43.7434 32.2856C43.7434 33.5157 43.7533 34.7458 43.7434 35.9759C43.7305 37.1916 42.9733 38.2329 41.8936 38.5453Z" fill="#60340B"/>
</g>
<defs>
<clipPath id="clip0_1002_77">
<rect width="27.3953" height="31" fill="white" transform="translate(16.3652 14.998)"/>
</clipPath>
</defs>
</svg>
