<svg width="61" height="61" viewBox="0 0 61 61" fill="none" xmlns="http://www.w3.org/2000/svg">
<circle cx="30.0625" cy="30.498" r="30" fill="#FAE2CB"/>
<g clip-path="url(#clip0_1002_67)">
<path d="M41.2225 37.3806C42.4016 37.3487 43.4059 37.709 44.2465 38.4967C45.01 39.2111 45.4273 40.1057 45.5554 41.1468C45.5978 41.4915 45.4468 41.6992 45.1457 41.8104C45.4001 43.9727 44.4968 45.4835 42.7239 45.9144C41.3167 46.2592 39.314 45.5835 38.7643 43.2962C38.7465 43.2962 38.7202 43.2902 38.7117 43.2962C38.2138 43.8555 37.855 43.7918 37.5869 43.092C37.5216 42.9196 37.4716 42.7472 37.4309 42.6231C37.1128 42.6576 36.8091 42.7188 36.5046 42.7196C33.879 42.7271 31.2534 42.7271 28.6278 42.7196C28.3733 42.7196 28.2512 42.7446 28.2037 43.0644C27.9661 44.6432 26.5708 45.8033 24.9803 45.7886C24.2114 45.7851 23.4688 45.5034 22.8858 44.9941C22.3027 44.4848 21.9173 43.7811 21.7985 43.0092C21.7858 42.923 21.7663 42.842 21.7527 42.7714C21.4983 42.7214 21.2523 42.7007 21.0249 42.624C20.0673 42.3025 19.5295 41.3657 19.6118 40.2178C19.6704 39.4339 19.8636 38.6665 20.1826 37.9503C20.4973 37.2358 20.8612 36.5446 21.2217 35.8509C21.2504 35.7995 21.29 35.7553 21.3375 35.7213C21.385 35.6873 21.4393 35.6645 21.4966 35.6544C23.9947 35.6449 26.4936 35.6475 28.9917 35.6492C29.0124 35.6525 29.0324 35.6592 29.051 35.669C28.8873 37.2143 29.1181 38.0821 29.8467 38.5734C29.8755 38.133 29.9052 37.7116 29.9315 37.2858C30.0333 35.5478 30.1351 33.8092 30.2369 32.07C30.2674 31.5529 30.1181 31.3719 29.6058 31.3159C28.8381 31.2297 28.0705 31.1487 27.3037 31.0574C27.0921 31.0363 26.8873 30.9699 26.7028 30.8627C26.5183 30.7554 26.3583 30.6097 26.2332 30.4351C26.1081 30.2604 26.0208 30.0609 25.9771 29.8495C25.9334 29.6381 25.9342 29.4198 25.9795 29.2087C26.4517 26.8738 26.9304 24.5399 27.4156 22.2072C27.6302 21.1731 28.4887 20.5586 29.4879 20.6801C30.3887 20.7887 31.0622 21.61 31.0843 22.5985C31.0947 22.7521 31.1543 22.898 31.2539 23.0139C32.1387 24.0136 33.3025 24.5428 34.5129 24.9961C35.0865 25.2181 35.6977 25.3221 36.3112 25.3021C37.1357 25.2719 37.9619 25.2917 38.7881 25.296C39.8221 25.3021 40.4277 25.9148 40.4337 26.9576C40.4337 27.28 40.4413 27.6032 40.4286 27.9255C40.4168 28.3116 40.26 28.6785 39.9905 28.9509C39.7209 29.2233 39.359 29.3807 38.9789 29.3906C38.6396 29.4018 38.3063 29.3906 37.9254 29.3906C38.168 31.2134 38.5539 32.8974 40.0901 34.0583C41.0758 34.8037 41.4592 35.825 41.2675 37.0635C41.2505 37.1574 41.2395 37.2522 41.2225 37.3806ZM34.8446 27.8281C33.2058 27.6392 31.6511 26.9911 30.354 25.9562C30.2293 26.5017 30.1088 26.999 30.0019 27.4989C29.9171 27.9126 30.0121 28.0892 30.4057 28.2409C31.1273 28.5178 31.8494 28.7928 32.5721 29.0657C33.4857 29.4104 33.8377 29.9327 33.741 30.9109C33.5315 33.0387 33.2991 35.164 33.0777 37.2884C33.0149 37.8917 32.9555 38.495 32.8945 39.1129H34.8454L34.8446 27.8281ZM41.9698 44.9389C43.5993 44.9458 44.6986 43.2419 44.0353 41.7441C44.0022 41.6481 43.9419 41.5643 43.8621 41.503C43.7823 41.4417 43.6865 41.4056 43.5866 41.3993C42.3303 41.27 41.1462 41.4855 40.046 42.1345C39.9468 42.1851 39.8644 42.2641 39.8091 42.3619C39.7538 42.4596 39.7279 42.5718 39.7347 42.6843C39.7444 43.2819 39.9834 43.8519 40.4007 44.2731C40.8181 44.6942 41.3808 44.9331 41.969 44.9389H41.9698ZM22.8241 42.7438C22.813 43.8478 23.9115 44.8122 25.1084 44.7605C26.2247 44.7139 27.2663 43.709 27.1824 42.7438H22.8241Z" fill="#60340B"/>
<path d="M19.6503 22.2245C20.7932 22.2245 21.936 22.2245 23.0789 22.2245C24.0968 22.2245 24.727 22.8648 24.7279 23.8912C24.7279 25.708 24.7279 27.5247 24.7279 29.3414C24.7279 30.3515 24.0934 30.9979 23.1035 30.9987C20.7963 30.9987 18.489 30.9987 16.1818 30.9987C15.2106 30.9987 14.5701 30.3481 14.565 29.3664C14.5617 27.5279 14.5617 25.6893 14.565 23.8507C14.565 22.8855 15.2106 22.2296 16.1581 22.2253C17.3218 22.2202 18.4856 22.2245 19.6503 22.2245Z" fill="#60340B"/>
<path d="M29.2809 34.6133H27.8083C25.6394 34.6133 23.4696 34.6133 21.3006 34.6185C21.2075 34.6262 21.1141 34.6094 21.0293 34.5695C20.9446 34.5296 20.8715 34.4681 20.8171 34.391C20.4198 33.8823 20.1896 33.2599 20.1589 32.6113C20.1377 32.1683 20.3226 31.9649 20.7526 31.9649C23.398 31.9649 26.0437 31.9649 28.6897 31.9649C29.0519 31.9649 29.2665 32.1261 29.2758 32.4553C29.2945 33.1585 29.2809 33.8661 29.2809 34.6133Z" fill="#60340B"/>
<path d="M28.2871 17.5654C28.2923 16.8803 28.5649 16.2253 29.045 15.7442C29.5252 15.2631 30.1736 14.9954 30.848 14.9997C31.1822 15.0026 31.5125 15.0722 31.8202 15.2048C32.1279 15.3373 32.4069 15.5301 32.6412 15.7722C32.8755 16.0143 33.0606 16.3009 33.1859 16.6157C33.3112 16.9305 33.3743 17.2672 33.3715 17.6068C33.3628 18.2867 33.0909 18.9357 32.6146 19.4133C32.1383 19.8909 31.496 20.1587 30.8268 20.1587C30.4924 20.158 30.1614 20.0903 29.8527 19.9596C29.5441 19.8289 29.2638 19.6377 29.028 19.3968C28.7921 19.156 28.6053 18.8703 28.4781 18.556C28.351 18.2418 28.2861 17.9052 28.2871 17.5654Z" fill="#60340B"/>
</g>
<defs>
<clipPath id="clip0_1002_67">
<rect width="31" height="31" fill="white" transform="translate(14.5625 14.998)"/>
</clipPath>
</defs>
</svg>
